HIERARCHY
ROOT Hips
{
	OFFSET 0.000000 0.000000 0.000000
	CHANNELS 6 Xposition Yposition Zposition Zrotation Yrotation Xrotation
	JOINT LHipJoint
	{
		OFFSET 0.000000 0.000000 0.000000
		CHANNELS 3 Zrotation Yrotation Xrotation
		JOINT LeftUpLeg
		{
			OFFSET 0.076937 -0.101296 0.047373
			CHANNELS 3 Zrotation Yrotation Xrotation
			JOINT LeftLeg
			{
				OFFSET 0.138181 -0.379650 0.000000
				CHANNELS 3 Zrotation Yrotation Xrotation
				JOINT LeftFoot
				{
					OFFSET 0.144621 -0.397343 0.000000
					CHANNELS 3 Zrotation Yrotation Xrotation
					JOINT LeftToeBase
					{
						OFFSET 0.008898 -0.024446 0.131094
						CHANNELS 3 Zrotation Yrotation Xrotation
						End Site
						{
							OFFSET 0.000000 0.000000 0.000000
						}
					}
				}
			}
		}
	}
	JOINT RHipJoint
	{
		OFFSET 0.000000 0.000000 0.000000
		CHANNELS 3 Zrotation Yrotation Xrotation
		JOINT RightUpLeg
		{
			OFFSET -0.073689 -0.101296 0.047373
			CHANNELS 3 Zrotation Yrotation Xrotation
			JOINT RightLeg
			{
				OFFSET -0.143511 -0.394292 0.000000
				CHANNELS 3 Zrotation Yrotation Xrotation
				JOINT RightFoot
				{
					OFFSET -0.144963 -0.398282 0.000000
					CHANNELS 3 Zrotation Yrotation Xrotation
					JOINT RightToeBase
					{
						OFFSET -0.009298 -0.025546 0.133386
						CHANNELS 3 Zrotation Yrotation Xrotation
						End Site
						{
							OFFSET 0.000000 0.000000 0.000000
						}
					}
				}
			}
		}
	}
	JOINT LowerBack
	{
		OFFSET 0.000000 0.000000 0.000000
		CHANNELS 3 Zrotation Yrotation Xrotation
		JOINT Spine
		{
			OFFSET 0.001596 0.114897 -0.010915
			CHANNELS 3 Zrotation Yrotation Xrotation
			JOINT Spine1
			{
				OFFSET 0.003201 0.115645 -0.002413
				CHANNELS 3 Zrotation Yrotation Xrotation
				JOINT Neck
				{
					OFFSET 0.000000 0.000000 0.000000
					CHANNELS 3 Zrotation Yrotation Xrotation
					JOINT Neck1
					{
						OFFSET -0.003058 0.098565 0.009709
						CHANNELS 3 Zrotation Yrotation Xrotation
						JOINT Head
						{
							OFFSET 0.005874 0.099418 -0.006997
							CHANNELS 3 Zrotation Yrotation Xrotation
							End Site
							{
								OFFSET 0.000000 0.000000 0.000000
							}
						}
					}
				}
				JOINT LeftShoulder
				{
					OFFSET 0.000000 0.000000 0.000000
					CHANNELS 3 Zrotation Yrotation Xrotation
					JOINT LeftArm
					{
						OFFSET 0.189788 0.067783 -0.017566
						CHANNELS 3 Zrotation Yrotation Xrotation
						JOINT LeftForeArm
						{
							OFFSET 0.281260 -0.000000 -0.000000
							CHANNELS 3 Zrotation Yrotation Xrotation
							JOINT LeftHand
							{
								OFFSET 0.196626 -0.000000 -0.000000
								CHANNELS 3 Zrotation Yrotation Xrotation
								JOINT LeftFingerBase
								{
									OFFSET 0.000000 0.000000 0.000000
									CHANNELS 3 Zrotation Yrotation Xrotation
									JOINT LeftHandIndex1
									{
										OFFSET 0.040372 -0.000000 -0.000000
										CHANNELS 3 Zrotation Yrotation Xrotation
										End Site
										{
											OFFSET 0.000000 0.000000 0.000000
										}
									}
								}
								JOINT LThumb
								{
									OFFSET 0.000000 0.000000 0.000000
									CHANNELS 3 Zrotation Yrotation Xrotation
									End Site
									{
										OFFSET 0.000000 0.000000 0.000000
									}
								}
							}
						}
					}
				}
				JOINT RightShoulder
				{
					OFFSET 0.000000 0.000000 0.000000
					CHANNELS 3 Zrotation Yrotation Xrotation
					JOINT RightArm
					{
						OFFSET -0.177042 0.077557 -0.022840
						CHANNELS 3 Zrotation Yrotation Xrotation
						JOINT RightForeArm
						{
							OFFSET -0.295874 -0.000000 -0.000000
							CHANNELS 3 Zrotation Yrotation Xrotation
							JOINT RightHand
							{
								OFFSET -0.194403 -0.000000 -0.000000
								CHANNELS 3 Zrotation Yrotation Xrotation
								JOINT RightFingerBase
								{
									OFFSET 0.000000 0.000000 0.000000
									CHANNELS 3 Zrotation Yrotation Xrotation
									JOINT RightHandIndex1
									{
										OFFSET -0.035138 -0.000000 -0.000000
										CHANNELS 3 Zrotation Yrotation Xrotation
										End Site
										{
											OFFSET 0.000000 0.000000 0.000000
										}
									}
								}
								JOINT RThumb
								{
									OFFSET 0.000000 0.000000 0.000000
									CHANNELS 3 Zrotation Yrotation Xrotation
									End Site
									{
										OFFSET 0.000000 0.000000 0.000000
									}
								}
							}
						}
					}
				}
			}
		}
	}
}
MOTION
Frames: 5
Frame Time: 0.033333
32.008713 0.942395 5.982535 -177.659133 21.589832 -178.013146 -11.172083 28.322244 -7.925157 -24.446706 -6.631146 -26.971499 3.271485 9.794466 39.643522 26.751438 3.058901 -0.277142 -6.329353 7.128469 -9.998968 -4.614504 -32.501848 0.734756 22.232349 0.388270 -15.878384 -12.558793 -3.846570 44.719266 -28.570117 10.305944 -8.319327 6.711341 -6.542733 -12.953003 -6.270852 7.168084 14.158807 13.128044 7.716071 19.623280 -12.026521 -3.467484 -32.223913 -10.419412 21.921081 -15.154213 12.005972 19.484366 19.728455 2.077126 5.355405 -4.301280 5.106444 18.414395 7.121288 -68.723815 -13.339692 55.612606 -6.198013 -71.340609 14.366035 10.501667 -20.853733 9.680416 -2.461294 12.046410 0.142965 -0.008931 -0.002220 0.011168 -0.011200 -0.005357 -0.000816 -5.981257 -47.776268 -6.535203 73.419670 2.072440 54.025445 11.549165 67.528013 21.028708 -6.492472 22.644225 8.336979 3.421703 -11.319608 -0.085926 -0.020235 -0.053764 0.025687 0.001288 0.004940 0.006345 
32.015572 0.944302 5.951162 -177.505081 16.107287 -177.975324 -12.630777 28.908708 -8.584019 -24.931389 -2.758041 -25.388078 2.430027 12.404189 33.660527 27.987089 6.060229 -2.827549 -5.820264 7.566173 -10.155894 -3.750533 -32.111262 0.334004 18.389149 -4.151998 -15.510967 -12.372091 -5.698753 46.299456 -26.515332 11.335164 -5.139377 8.303739 -8.651310 -13.470994 -8.875102 7.075052 14.369349 15.293328 8.013544 18.123416 -11.293082 -3.990510 -32.450117 -10.593203 22.648270 -15.396347 12.729778 19.981001 19.905621 2.226365 5.060449 -4.152588 5.285200 18.180603 7.333883 -68.806525 -12.128791 54.703678 -5.068664 -66.017554 12.661590 9.571056 -20.210380 8.678251 -2.793799 11.886493 0.215780 -0.011386 0.004439 0.012099 -0.011743 -0.008792 0.002130 -5.448236 -48.511748 -7.248659 73.116386 3.493074 54.267917 8.276718 60.584780 18.550418 -5.497425 20.445034 7.439921 2.953194 -11.560166 -0.125626 -0.022313 -0.052700 0.022229 -0.004552 0.007251 0.005683 
32.018280 0.946485 5.920483 -177.539427 11.334295 -178.336475 -13.804116 29.451307 -8.997393 -25.309400 1.067126 -23.374458 2.514478 14.683362 30.886946 29.261431 8.597612 -3.685886 -5.581113 8.296295 -10.092960 -2.795249 -31.726255 0.342831 14.361889 -6.301942 -16.787177 -13.419906 -7.771095 52.132263 -25.137063 12.318904 -0.288054 10.058089 -11.738320 -13.997115 -10.727208 6.830954 13.634362 16.473474 7.887350 17.317249 -10.683449 -4.005905 -33.089736 -10.820173 23.546185 -15.959404 13.325304 20.554561 19.927329 2.419392 4.966206 -3.994766 5.749449 18.857813 7.724016 -69.044509 -10.452125 54.335611 -5.447232 -60.418637 12.092130 8.800168 -19.423923 8.069933 -3.016818 11.726295 0.278307 -0.013845 0.008997 0.013954 -0.010029 -0.011248 0.003434 -4.944126 -49.961125 -7.254422 71.600484 4.084719 54.175043 6.667786 55.177138 16.721463 -4.891317 18.173884 7.002758 2.739840 -11.740530 -0.169727 -0.024863 -0.051301 0.020944 -0.008590 0.009267 0.005897 
32.018174 0.947630 5.892006 -177.653070 6.657857 -178.681857 -14.406206 29.411794 -9.300479 -25.786162 3.516815 -21.045936 3.204086 15.790414 30.128253 30.182436 8.268300 -4.174797 -5.979357 8.720195 -10.353310 -1.827173 -31.036583 0.921271 10.786913 -5.848230 -19.851233 -14.845050 -8.831556 60.315629 -26.238136 15.170465 6.739916 11.117472 -14.668407 -13.451060 -11.428378 6.731940 13.248570 16.514622 7.851673 16.552461 -10.433720 -3.674066 -33.538066 -11.101054 24.452038 -16.604228 13.894735 21.220268 20.521687 2.658243 5.083012 -3.647706 6.039386 19.573523 8.079782 -68.659831 -9.299030 54.272545 -5.698892 -55.252499 10.911288 6.654294 -14.126249 5.959179 -3.593320 12.542538 0.208941 -0.015945 0.011226 0.015710 -0.008660 -0.013473 0.002224 -4.444270 -51.634110 -7.191930 69.557731 3.589661 53.518124 6.054817 50.906905 16.202365 -4.152188 17.162331 6.532491 2.807632 -11.709598 -0.212253 -0.026406 -0.051331 0.021933 -0.010800 0.010593 0.006673 
32.016613 0.945599 5.867357 -177.795493 1.767599 -179.020334 -14.267042 28.918111 -9.589469 -27.060963 3.995359 -18.097421 4.588650 15.816109 30.736985 32.727371 5.343775 -4.893730 -6.275871 8.428250 -11.109101 -1.007369 -30.112512 1.617533 7.933296 -2.921614 -24.041817 -17.451888 -9.240101 69.070223 -29.749138 19.632277 14.598103 11.382668 -17.849962 -11.695517 -10.935428 6.779924 13.438125 15.795793 7.715383 15.779309 -10.749185 -3.470644 -33.540228 -11.381291 24.781034 -16.954925 13.919142 21.476708 21.048044 2.783790 5.337251 -3.344053 5.875608 19.801827 8.363989 -68.464399 -8.899939 52.959081 -5.746527 -50.852556 10.431836 5.048048 -10.140912 4.196918 -3.753003 13.143673 0.162262 -0.017478 0.014829 0.017452 -0.006696 -0.015764 0.000447 -3.943286 -52.802331 -7.025336 68.065838 2.733719 51.674660 4.697100 45.905324 15.772580 -3.227879 17.220942 5.947245 2.865698 -11.537157 -0.195051 -0.027742 -0.049293 0.025863 -0.012249 0.010321 0.007403 
